Genre:Crime | Drama
Language:English
IMDb:http://www.imdb.com/title/tt1663193/
Source:DVD


Format : Matroska
File size : 1.23 GiB
Duration : 1h 34mn
Overall bit rate : 1 863 Kbps


Video
Format settings, CABAC : Yes
Format settings, ReFrames : 4 frames
Codec ID : V_MPEG4/ISO/AVC
Duration : 1h 34mn
Bit rate : 1 500 Kbps
Width : 720 pixels
Height : 384 pixels
Display aspect ratio : 1.875
Frame rate mode : Variable
Frame rate : 23.976 fps
Color space : YUV
Chroma subsampling : 4:2:0
Bit depth : 8 bits
Scan type : Progressive
Bits/(Pixel*Frame) : 0.226
Stream size : 973 MiB (77%)
Writing library : x264 core 106 r1732 b20059a

Audio
ID : 2
Format : AC-3
Format/Info : Audio Coding 3
Mode extension : CM (complete main)
Codec ID : A_AC3
Duration : 1h 34mn
Bit rate mode : Constant
Bit rate : 384 Kbps
Channel(s) : 6 channels
Channel positions : Front: L C R, Side: L R, LFE
Sampling rate : 48.0 KHz
Bit depth : 16 bits
Video delay : -1mn 5s
Stream size : 259 MiB (21%)
Language : English


Plot:
The story centers on Charlie, a Los Angeles billionaire financial whiz who goes into self-imposed exile in Tijuana after his empire is revealed to have been a Ponzi scheme






================================== 
http://thepiratebay.org/user/hiest
==================================






Screen Shots:
 
http://www.rapidhdd.com/images/176484vlcsnap-2010-12-18-13h48m30s28.png
 
http://www.rapidhdd.com/images/689271vlcsnap-2010-12-18-13h48m59s66.png
 
http://www.rapidhdd.com/images/912541vlcsnap-2010-12-18-13h49m18s1.png
 
http://www.rapidhdd.com/images/274418vlcsnap-2010-12-18-13h49m38s201.png
 
http://www.rapidhdd.com/images/99910vlcsnap-2010-12-18-13h49m55s122.png